<svg xmlns="http://www.w3.org/2000/svg" xmlns:xlink="http://www.w3.org/1999/xlink" id="processonSvg1000" viewBox="123.0 74.5 837.0 608.0" width="837.0" height="608.0"><defs id="ProcessOnDefs1001"><marker id="ProcessOnMarker1046" markerUnits="userSpaceOnUse" orient="auto" markerWidth="14.289086868996552" markerHeight="19.055054660878554" viewBox="-0.5877852522924731 -0.8090169943749475 14.289086868996552 19.055054660878554" refX="12.0" refY="8.71851033606433"><path id="ProcessOnPath1047" d="M0 0L12.0 8.71851033606433L0 17.43702067212866" stroke="#323232" stroke-width="2.0" fill="none" transform="matrix(1.0,0.0,0.0,1.0,0.0,0.0)"/></marker><marker id="ProcessOnMarker1050" markerUnits="userSpaceOnUse" orient="auto" markerWidth="14.289086868996552" markerHeight="19.055054660878554" viewBox="-0.5877852522924731 -0.8090169943749475 14.289086868996552 19.055054660878554" refX="12.0" refY="8.71851033606433"><path id="ProcessOnPath1051" d="M0 0L12.0 8.71851033606433L0 17.43702067212866" stroke="#323232" stroke-width="2.0" fill="none" transform="matrix(1.0,0.0,0.0,1.0,0.0,0.0)"/></marker><marker id="ProcessOnMarker1054" markerUnits="userSpaceOnUse" orient="auto" markerWidth="14.289086868996552" markerHeight="19.055054660878554" viewBox="-0.5877852522924731 -0.8090169943749475 14.289086868996552 19.055054660878554" refX="12.0" refY="8.71851033606433"><path id="ProcessOnPath1055" d="M0 0L12.0 8.71851033606433L0 17.43702067212866" stroke="#323232" stroke-width="2.0" fill="none" transform="matrix(1.0,0.0,0.0,1.0,0.0,0.0)"/></marker><marker id="ProcessOnMarker1058" markerUnits="userSpaceOnUse" orient="auto" markerWidth="14.289086868996552" markerHeight="19.055054660878554" viewBox="-0.5877852522924731 -0.8090169943749475 14.289086868996552 19.055054660878554" refX="12.0" refY="8.71851033606433"><path id="ProcessOnPath1059" d="M0 0L12.0 8.71851033606433L0 17.43702067212866" stroke="#323232" stroke-width="2.0" fill="none" transform="matrix(1.0,0.0,0.0,1.0,0.0,0.0)"/></marker><marker id="ProcessOnMarker1062" markerUnits="userSpaceOnUse" orient="auto" markerWidth="14.289086868996552" markerHeight="19.055054660878554" viewBox="-0.5877852522924731 -0.8090169943749475 14.289086868996552 19.055054660878554" refX="12.0" refY="8.71851033606433"><path id="ProcessOnPath1063" d="M0 0L12.0 8.71851033606433L0 17.43702067212866" stroke="#323232" stroke-width="2.0" fill="none" transform="matrix(1.0,0.0,0.0,1.0,0.0,0.0)"/></marker><marker id="ProcessOnMarker1066" markerUnits="userSpaceOnUse" orient="auto" markerWidth="14.289086868996552" markerHeight="19.055054660878554" viewBox="-0.5877852522924731 -0.8090169943749475 14.289086868996552 19.055054660878554" refX="12.0" refY="8.71851033606433"><path id="ProcessOnPath1067" d="M0 0L12.0 8.71851033606433L0 17.43702067212866" stroke="#323232" stroke-width="2.0" fill="none" transform="matrix(1.0,0.0,0.0,1.0,0.0,0.0)"/></marker><marker id="ProcessOnMarker1070" markerUnits="userSpaceOnUse" orient="auto" markerWidth="14.289086868996552" markerHeight="19.055054660878554" viewBox="-0.5877852522924731 -0.8090169943749475 14.289086868996552 19.055054660878554" refX="12.0" refY="8.71851033606433"><path id="ProcessOnPath1071" d="M0 0L12.0 8.71851033606433L0 17.43702067212866" stroke="#323232" stroke-width="2.0" fill="none" transform="matrix(1.0,0.0,0.0,1.0,0.0,0.0)"/></marker><marker id="ProcessOnMarker1078" markerUnits="userSpaceOnUse" orient="auto" markerWidth="14.289086868996552" markerHeight="19.055054660878554" viewBox="-0.5877852522924731 -0.8090169943749475 14.289086868996552 19.055054660878554" refX="12.0" refY="8.71851033606433"><path id="ProcessOnPath1079" d="M0 0L12.0 8.71851033606433L0 17.43702067212866" stroke="#323232" stroke-width="2.0" fill="none" transform="matrix(1.0,0.0,0.0,1.0,0.0,0.0)"/></marker><marker id="ProcessOnMarker1086" markerUnits="userSpaceOnUse" orient="auto" markerWidth="14.289086868996552" markerHeight="19.055054660878554" viewBox="-0.5877852522924731 -0.8090169943749475 14.289086868996552 19.055054660878554" refX="12.0" refY="8.71851033606433"><path id="ProcessOnPath1087" d="M0 0L12.0 8.71851033606433L0 17.43702067212866" stroke="#323232" stroke-width="2.0" fill="none" transform="matrix(1.0,0.0,0.0,1.0,0.0,0.0)"/></marker><marker id="ProcessOnMarker1102" markerUnits="userSpaceOnUse" orient="auto" markerWidth="14.289086868996552" markerHeight="19.055054660878554" viewBox="-0.5877852522924731 -0.8090169943749475 14.289086868996552 19.055054660878554" refX="12.0" refY="8.71851033606433"><path id="ProcessOnPath1103" d="M0 0L12.0 8.71851033606433L0 17.43702067212866" stroke="#323232" stroke-width="2.0" fill="none" transform="matrix(1.0,0.0,0.0,1.0,0.0,0.0)"/></marker><marker id="ProcessOnMarker1106" markerUnits="userSpaceOnUse" orient="auto" markerWidth="14.289086868996552" markerHeight="19.055054660878554" viewBox="-0.5877852522924731 -0.8090169943749475 14.289086868996552 19.055054660878554" refX="12.0" refY="8.71851033606433"><path id="ProcessOnPath1107" d="M0 0L12.0 8.71851033606433L0 17.43702067212866" stroke="#323232" stroke-width="2.0" fill="none" transform="matrix(1.0,0.0,0.0,1.0,0.0,0.0)"/></marker><marker id="ProcessOnMarker1110" markerUnits="userSpaceOnUse" orient="auto" markerWidth="14.289086868996552" markerHeight="19.055054660878554" viewBox="-0.5877852522924731 -0.8090169943749475 14.289086868996552 19.055054660878554" refX="12.0" refY="8.71851033606433"><path id="ProcessOnPath1111" d="M0 0L12.0 8.71851033606433L0 17.43702067212866" stroke="#323232" stroke-width="2.0" fill="none" transform="matrix(1.0,0.0,0.0,1.0,0.0,0.0)"/></marker><marker id="ProcessOnMarker1114" markerUnits="userSpaceOnUse" orient="auto" markerWidth="14.289086868996552" markerHeight="19.055054660878554" viewBox="-0.5877852522924731 -0.8090169943749475 14.289086868996552 19.055054660878554" refX="12.0" refY="8.71851033606433"><path id="ProcessOnPath1115" d="M0 0L12.0 8.71851033606433L0 17.43702067212866" stroke="#323232" stroke-width="2.0" fill="none" transform="matrix(1.0,0.0,0.0,1.0,0.0,0.0)"/></marker><marker id="ProcessOnMarker1118" markerUnits="userSpaceOnUse" orient="auto" markerWidth="14.289086868996552" markerHeight="19.055054660878554" viewBox="-0.5877852522924731 -0.8090169943749475 14.289086868996552 19.055054660878554" refX="12.0" refY="8.71851033606433"><path id="ProcessOnPath1119" d="M0 0L12.0 8.71851033606433L0 17.43702067212866" stroke="#323232" stroke-width="2.0" fill="none" transform="matrix(1.0,0.0,0.0,1.0,0.0,0.0)"/></marker><marker id="ProcessOnMarker1122" markerUnits="userSpaceOnUse" orient="auto" markerWidth="14.289086868996552" markerHeight="19.055054660878554" viewBox="-0.5877852522924731 -0.8090169943749475 14.289086868996552 19.055054660878554" refX="12.0" refY="8.71851033606433"><path id="ProcessOnPath1123" d="M0 0L12.0 8.71851033606433L0 17.43702067212866" stroke="#323232" stroke-width="2.0" fill="none" transform="matrix(1.0,0.0,0.0,1.0,0.0,0.0)"/></marker></defs><g id="ProcessOnG1002"><path id="ProcessOnPath1003" d="M123.0 74.5H960.0V682.5H123.0V74.5Z" fill="none"/><g id="ProcessOnG1004"><g id="ProcessOnG1005" transform="matrix(1.0,0.0,0.0,1.0,163.0,143.0)" opacity="1.0"><path id="ProcessOnPath1006" d="M17.666666666666664 10.375C17.666666666666664 -3.458333333333333 35.33333333333333 -3.458333333333333 35.33333333333333 10.375C35.33333333333333 24.208333333333332 17.666666666666664 24.208333333333332 17.666666666666664 10.375M26.5 20.75L26.5 62.25M26.5 62.25L4.416666666666666 83.0M26.5 62.25L48.58333333333333 83.0M0.0 41.5L53.0 41.5" stroke="#323232" stroke-width="2.0" stroke-dasharray="none" opacity="1.0" fill="#ffffff"/><path id="ProcessOnPath1007" d="M0.0 0.0L53.0 0.0L53.0 83.0L0.0 83.0Z" stroke="none" stroke-width="0.0" stroke-dasharray="none" opacity="1.0" fill="none"/><g id="ProcessOnG1008" transform="matrix(1.0,0.0,0.0,1.0,-20.0,89.875)"><text id="ProcessOnText1009" fill="#000000" font-size="13" x="45.5" y="13.325" font-family="微软雅黑" font-weight="normal" font-style="normal" text-decoration="none" family="微软雅黑" text-anchor="middle" size="13">买家</text></g></g><g id="ProcessOnG1010" transform="matrix(1.0,0.0,0.0,1.0,163.0,410.0)" opacity="1.0"><path id="ProcessOnPath1011" d="M17.666666666666664 10.375C17.666666666666664 -3.458333333333333 35.33333333333333 -3.458333333333333 35.33333333333333 10.375C35.33333333333333 24.208333333333332 17.666666666666664 24.208333333333332 17.666666666666664 10.375M26.5 20.75L26.5 62.25M26.5 62.25L4.416666666666666 83.0M26.5 62.25L48.58333333333333 83.0M0.0 41.5L53.0 41.5" stroke="#323232" stroke-width="2.0" stroke-dasharray="none" opacity="1.0" fill="#ffffff"/><path id="ProcessOnPath1012" d="M0.0 0.0L53.0 0.0L53.0 83.0L0.0 83.0Z" stroke="none" stroke-width="0.0" stroke-dasharray="none" opacity="1.0" fill="none"/><g id="ProcessOnG1013" transform="matrix(1.0,0.0,0.0,1.0,-20.0,89.875)"><text id="ProcessOnText1014" fill="#000000" font-size="13" x="45.5" y="13.325" font-family="微软雅黑" font-weight="normal" font-style="normal" text-decoration="none" family="微软雅黑" text-anchor="middle" size="13">卖家</text></g></g><g id="ProcessOnG1015" transform="matrix(1.0,0.0,0.0,1.0,384.0,337.5)" opacity="1.0"><path id="ProcessOnPath1016" d="M0.0 28.0C0.0 -9.333333333333334 193.0 -9.333333333333334 193.0 28.0C193.0 65.33333333333333 0.0 65.33333333333333 0.0 28.0Z" stroke="#323232" stroke-width="2.0" stroke-dasharray="none" opacity="1.0" fill="#ffffff"/><g id="ProcessOnG1017" transform="matrix(1.0,0.0,0.0,1.0,10.0,19.875)"><text id="ProcessOnText1018" fill="#000000" font-size="13" x="85.5" y="13.325" font-family="微软雅黑" font-weight="normal" font-style="normal" text-decoration="none" family="微软雅黑" text-anchor="middle" size="13">管理标签</text></g></g><g id="ProcessOnG1019" transform="matrix(1.0,0.0,0.0,1.0,384.0,94.5)" opacity="1.0"><path id="ProcessOnPath1020" d="M0.0 28.0C0.0 -9.333333333333334 193.0 -9.333333333333334 193.0 28.0C193.0 65.33333333333333 0.0 65.33333333333333 0.0 28.0Z" stroke="#323232" stroke-width="2.0" stroke-dasharray="none" opacity="1.0" fill="#ffffff"/><g id="ProcessOnG1021" transform="matrix(1.0,0.0,0.0,1.0,10.0,19.875)"><text id="ProcessOnText1022" fill="#000000" font-size="13" x="85.5" y="13.325" font-family="微软雅黑" font-weight="normal" font-style="normal" text-decoration="none" family="微软雅黑" text-anchor="middle" size="13">浏览标签</text></g></g><g id="ProcessOnG1023" transform="matrix(1.0,0.0,0.0,1.0,384.0,227.5)" opacity="1.0"><path id="ProcessOnPath1024" d="M0.0 28.0C0.0 -9.333333333333334 193.0 -9.333333333333334 193.0 28.0C193.0 65.33333333333333 0.0 65.33333333333333 0.0 28.0Z" stroke="#323232" stroke-width="2.0" stroke-dasharray="none" opacity="1.0" fill="#ffffff"/><g id="ProcessOnG1025" transform="matrix(1.0,0.0,0.0,1.0,10.0,19.875)"><text id="ProcessOnText1026" fill="#000000" font-size="13" x="85.5" y="13.325" font-family="微软雅黑" font-weight="normal" font-style="normal" text-decoration="none" family="微软雅黑" text-anchor="middle" size="13">购买服务</text></g></g><g id="ProcessOnG1027" transform="matrix(1.0,0.0,0.0,1.0,384.0,606.5)" opacity="1.0"><path id="ProcessOnPath1028" d="M0.0 28.0C0.0 -9.333333333333334 193.0 -9.333333333333334 193.0 28.0C193.0 65.33333333333333 0.0 65.33333333333333 0.0 28.0Z" stroke="#323232" stroke-width="2.0" stroke-dasharray="none" opacity="1.0" fill="#ffffff"/><g id="ProcessOnG1029" transform="matrix(1.0,0.0,0.0,1.0,10.0,19.875)"><text id="ProcessOnText1030" fill="#000000" font-size="13" x="85.5" y="13.325" font-family="微软雅黑" font-weight="normal" font-style="normal" text-decoration="none" family="微软雅黑" text-anchor="middle" size="13">用户评级</text></g></g><g id="ProcessOnG1031" transform="matrix(1.0,0.0,0.0,1.0,384.0,533.5)" opacity="1.0"><path id="ProcessOnPath1032" d="M0.0 28.0C0.0 -9.333333333333334 193.0 -9.333333333333334 193.0 28.0C193.0 65.33333333333333 0.0 65.33333333333333 0.0 28.0Z" stroke="#323232" stroke-width="2.0" stroke-dasharray="none" opacity="1.0" fill="#ffffff"/><g id="ProcessOnG1033" transform="matrix(1.0,0.0,0.0,1.0,10.0,19.875)"><text id="ProcessOnText1034" fill="#000000" font-size="13" x="85.5" y="13.325" font-family="微软雅黑" font-weight="normal" font-style="normal" text-decoration="none" family="微软雅黑" text-anchor="middle" size="13">申请认证</text></g></g><g id="ProcessOnG1035" transform="matrix(1.0,0.0,0.0,1.0,730.0,548.0)" opacity="1.0"><path id="ProcessOnPath1036" d="M17.666666666666664 10.375C17.666666666666664 -3.458333333333333 35.33333333333333 -3.458333333333333 35.33333333333333 10.375C35.33333333333333 24.208333333333332 17.666666666666664 24.208333333333332 17.666666666666664 10.375M26.5 20.75L26.5 62.25M26.5 62.25L4.416666666666666 83.0M26.5 62.25L48.58333333333333 83.0M0.0 41.5L53.0 41.5" stroke="#323232" stroke-width="2.0" stroke-dasharray="none" opacity="1.0" fill="#ffffff"/><path id="ProcessOnPath1037" d="M0.0 0.0L53.0 0.0L53.0 83.0L0.0 83.0Z" stroke="none" stroke-width="0.0" stroke-dasharray="none" opacity="1.0" fill="none"/><g id="ProcessOnG1038" transform="matrix(1.0,0.0,0.0,1.0,-20.0,89.875)"><text id="ProcessOnText1039" fill="#000000" font-size="13" x="45.5" y="13.325" font-family="微软雅黑" font-weight="normal" font-style="normal" text-decoration="none" family="微软雅黑" text-anchor="middle" size="13">管理员</text></g></g><g id="ProcessOnG1040" transform="matrix(1.0,0.0,0.0,1.0,384.0,465.0)" opacity="1.0"><path id="ProcessOnPath1041" d="M0.0 28.0C0.0 -9.333333333333334 193.0 -9.333333333333334 193.0 28.0C193.0 65.33333333333333 0.0 65.33333333333333 0.0 28.0Z" stroke="#323232" stroke-width="2.0" stroke-dasharray="none" opacity="1.0" fill="#ffffff"/><g id="ProcessOnG1042" transform="matrix(1.0,0.0,0.0,1.0,10.0,19.875)"><text id="ProcessOnText1043" fill="#000000" font-size="13" x="85.5" y="13.325" font-family="微软雅黑" font-weight="normal" font-style="normal" text-decoration="none" family="微软雅黑" text-anchor="middle" size="13">提供服务</text></g></g><g id="ProcessOnG1044"><path id="ProcessOnPath1045" d="M216.0 451.5L384.0 365.5" stroke="#323232" stroke-width="2.0" stroke-dasharray="none" fill="none" marker-end="url(#ProcessOnMarker1046)"/></g><g id="ProcessOnG1048"><path id="ProcessOnPath1049" d="M216.0 451.5L384.0 493.0" stroke="#323232" stroke-width="2.0" stroke-dasharray="none" fill="none" marker-end="url(#ProcessOnMarker1050)"/></g><g id="ProcessOnG1052"><path id="ProcessOnPath1053" d="M216.0 451.5L384.0 561.5" stroke="#323232" stroke-width="2.0" stroke-dasharray="none" fill="none" marker-end="url(#ProcessOnMarker1054)"/></g><g id="ProcessOnG1056"><path id="ProcessOnPath1057" d="M730.0 589.5L577.0 561.5" stroke="#323232" stroke-width="2.0" stroke-dasharray="none" fill="none" marker-end="url(#ProcessOnMarker1058)"/></g><g id="ProcessOnG1060"><path id="ProcessOnPath1061" d="M730.0 589.5L577.0 634.5" stroke="#323232" stroke-width="2.0" stroke-dasharray="none" fill="none" marker-end="url(#ProcessOnMarker1062)"/></g><g id="ProcessOnG1064"><path id="ProcessOnPath1065" d="M216.0 184.5L384.0 122.5" stroke="#323232" stroke-width="2.0" stroke-dasharray="none" fill="none" marker-end="url(#ProcessOnMarker1066)"/></g><g id="ProcessOnG1068"><path id="ProcessOnPath1069" d="M216.0 184.5L384.0 255.5" stroke="#323232" stroke-width="2.0" stroke-dasharray="none" fill="none" marker-end="url(#ProcessOnMarker1070)"/></g><g id="ProcessOnG1072" transform="matrix(1.0,0.0,0.0,1.0,384.0,401.0)" opacity="1.0"><path id="ProcessOnPath1073" d="M0.0 28.0C0.0 -9.333333333333334 193.0 -9.333333333333334 193.0 28.0C193.0 65.33333333333333 0.0 65.33333333333333 0.0 28.0Z" stroke="#323232" stroke-width="2.0" stroke-dasharray="none" opacity="1.0" fill="#ffffff"/><g id="ProcessOnG1074" transform="matrix(1.0,0.0,0.0,1.0,10.0,19.875)"><text id="ProcessOnText1075" fill="#000000" font-size="13" x="85.5" y="13.325" font-family="微软雅黑" font-weight="normal" font-style="normal" text-decoration="none" family="微软雅黑" text-anchor="middle" size="13">管理服务</text></g></g><g id="ProcessOnG1076"><path id="ProcessOnPath1077" d="M216.0 451.5L384.0 429.0" stroke="#323232" stroke-width="2.0" stroke-dasharray="none" fill="none" marker-end="url(#ProcessOnMarker1078)"/></g><g id="ProcessOnG1080" transform="matrix(1.0,0.0,0.0,1.0,384.0,159.5)" opacity="1.0"><path id="ProcessOnPath1081" d="M0.0 28.0C0.0 -9.333333333333334 193.0 -9.333333333333334 193.0 28.0C193.0 65.33333333333333 0.0 65.33333333333333 0.0 28.0Z" stroke="#323232" stroke-width="2.0" stroke-dasharray="none" opacity="1.0" fill="#ffffff"/><g id="ProcessOnG1082" transform="matrix(1.0,0.0,0.0,1.0,10.0,19.875)"><text id="ProcessOnText1083" fill="#000000" font-size="13" x="85.5" y="13.325" font-family="微软雅黑" font-weight="normal" font-style="normal" text-decoration="none" family="微软雅黑" text-anchor="middle" size="13">浏览服务</text></g></g><g id="ProcessOnG1084"><path id="ProcessOnPath1085" d="M216.0 184.5L384.0 187.5" stroke="#323232" stroke-width="2.0" stroke-dasharray="none" fill="none" marker-end="url(#ProcessOnMarker1086)"/></g><g id="ProcessOnG1088" transform="matrix(1.0,0.0,0.0,1.0,747.0,315.5)" opacity="1.0"><path id="ProcessOnPath1089" d="M0.0 28.0C0.0 -9.333333333333334 193.0 -9.333333333333334 193.0 28.0C193.0 65.33333333333333 0.0 65.33333333333333 0.0 28.0Z" stroke="#323232" stroke-width="2.0" stroke-dasharray="none" opacity="1.0" fill="#ffffff"/><g id="ProcessOnG1090" transform="matrix(1.0,0.0,0.0,1.0,10.0,19.875)"><text id="ProcessOnText1091" fill="#000000" font-size="13" x="85.5" y="13.325" font-family="微软雅黑" font-weight="normal" font-style="normal" text-decoration="none" family="微软雅黑" text-anchor="middle" size="13">确认服务</text></g></g><g id="ProcessOnG1092" transform="matrix(1.0,0.0,0.0,1.0,747.0,242.5)" opacity="1.0"><path id="ProcessOnPath1093" d="M0.0 28.0C0.0 -9.333333333333334 193.0 -9.333333333333334 193.0 28.0C193.0 65.33333333333333 0.0 65.33333333333333 0.0 28.0Z" stroke="#323232" stroke-width="2.0" stroke-dasharray="none" opacity="1.0" fill="#ffffff"/><g id="ProcessOnG1094" transform="matrix(1.0,0.0,0.0,1.0,10.0,19.875)"><text id="ProcessOnText1095" fill="#000000" font-size="13" x="85.5" y="13.325" font-family="微软雅黑" font-weight="normal" font-style="normal" text-decoration="none" family="微软雅黑" text-anchor="middle" size="13">评价服务</text></g></g><g id="ProcessOnG1096" transform="matrix(1.0,0.0,0.0,1.0,747.0,385.5)" opacity="1.0"><path id="ProcessOnPath1097" d="M0.0 28.0C0.0 -9.333333333333334 193.0 -9.333333333333334 193.0 28.0C193.0 65.33333333333333 0.0 65.33333333333333 0.0 28.0Z" stroke="#323232" stroke-width="2.0" stroke-dasharray="none" opacity="1.0" fill="#ffffff"/><g id="ProcessOnG1098" transform="matrix(1.0,0.0,0.0,1.0,10.0,19.875)"><text id="ProcessOnText1099" fill="#000000" font-size="13" x="85.5" y="13.325" font-family="微软雅黑" font-weight="normal" font-style="normal" text-decoration="none" family="微软雅黑" text-anchor="middle" size="13">取消服务</text></g></g><g id="ProcessOnG1100"><path id="ProcessOnPath1101" d="M577.0 255.5L747.0 343.5" stroke="#323232" stroke-width="2.0" stroke-dasharray="none" fill="none" marker-end="url(#ProcessOnMarker1102)"/></g><g id="ProcessOnG1104"><path id="ProcessOnPath1105" d="M577.0 255.5L747.0 270.5" stroke="#323232" stroke-width="2.0" stroke-dasharray="none" fill="none" marker-end="url(#ProcessOnMarker1106)"/></g><g id="ProcessOnG1108"><path id="ProcessOnPath1109" d="M577.0 255.5L747.0 413.5" stroke="#323232" stroke-width="2.0" stroke-dasharray="none" fill="none" marker-end="url(#ProcessOnMarker1110)"/></g><g id="ProcessOnG1112"><path id="ProcessOnPath1113" d="M577.0 493.0L747.0 343.5" stroke="#323232" stroke-width="2.0" stroke-dasharray="none" fill="none" marker-end="url(#ProcessOnMarker1114)"/></g><g id="ProcessOnG1116"><path id="ProcessOnPath1117" d="M577.0 493.0L747.0 413.5" stroke="#323232" stroke-width="2.0" stroke-dasharray="none" fill="none" marker-end="url(#ProcessOnMarker1118)"/></g><g id="ProcessOnG1120"><path id="ProcessOnPath1121" d="M730.0 589.5L747.0 413.5" stroke="#323232" stroke-width="2.0" stroke-dasharray="none" fill="none" marker-end="url(#ProcessOnMarker1122)"/></g></g></g></svg>